# Blender 3.2.2
# www.blender.org
mtllib Test.mtl
o Navi
v 0.837105 -3.113684 2.367832
v 2.982344 -2.198285 1.924031
v -0.753986 -0.427437 0.209477
v -0.753986 -0.427437 0.209477
v 2.982344 -2.198285 1.924031
v 1.388777 0.491651 -0.237447
v 2.981955 -2.198285 -1.913074
v 0.836241 -3.113683 -2.355894
v 1.389022 0.491651 0.250890
v 1.389022 0.491651 0.250890
v 0.836241 -3.113683 -2.355894
v -0.754215 -0.427437 -0.195123
v 1.254052 -0.915138 0.269496
v 4.998367 3.930429 4.763968
v -1.003978 1.363687 -0.305745
v -1.003978 1.363687 -0.305745
v 4.998367 3.930429 4.763968
v 2.746573 6.208807 4.184304
v 4.996654 3.930431 -4.755722
v 1.253776 -0.915138 -0.256094
v 2.745507 6.208807 -4.174792
v 2.745507 6.208807 -4.174792
v 1.253776 -0.915138 -0.256094
v -1.003604 1.363687 0.320266
v -0.509768 -3.870408 3.925525
v 0.651415 3.870406 3.904520
v 0.580524 3.870407 -0.012479
v -0.509768 -3.870408 3.925525
v 0.580524 3.870407 -0.012479
v -0.580587 -3.870407 0.008562
v -0.580587 -3.870407 0.008562
v 0.580524 3.870407 -0.012479
v 0.509857 3.870408 -3.921599
v -0.580587 -3.870407 0.008562
v 0.509857 3.870408 -3.921599
v -0.651403 -3.870406 -3.900620
vn -0.0870 0.5922 0.8011
vn -0.0869 0.5922 0.8011
vn -0.0875 0.5925 -0.8008
vn -0.0874 0.5924 -0.8009
vn -0.5263 -0.3229 0.7866
vn -0.5273 -0.3209 0.7868
vn -0.5283 -0.3216 -0.7858
vn -0.5264 -0.3225 -0.7867
vn -0.9888 0.1484 0.0179
vt 0.321606 0.078947
vt 0.083897 0.078947
vt 0.281010 0.921053
vt 0.281010 0.921053
vt 0.083897 0.078947
vt 0.043302 0.921053
vt 0.083897 0.078947
vt 0.321606 0.078947
vt 0.043302 0.921053
vt 0.043302 0.921053
vt 0.321606 0.078947
vt 0.281010 0.921053
vt 0.070365 0.921053
vt 0.070365 0.078947
vt 0.301308 0.921053
vt 0.301308 0.921053
vt 0.070365 0.078947
vt 0.301308 0.078947
vt 0.070365 0.078947
vt 0.070365 0.921053
vt 0.301308 0.078947
vt 0.301308 0.078947
vt 0.070365 0.921053
vt 0.301308 0.921053
vt 0.724609 0.078125
vt 0.724609 0.919922
vt 0.955078 0.919922
vt 0.724609 0.078125
vt 0.955078 0.919922
vt 0.955078 0.078125
vt 0.956698 0.078947
vt 0.956698 0.921053
vt 0.725756 0.921053
vt 0.956698 0.078947
vt 0.725756 0.921053
vt 0.725756 0.078947
s 1
usemtl Material.102_Navi_grp.png
f 1/1/1 2/2/1 3/3/1
f 4/4/2 5/5/2 6/6/2
usemtl Material.101_Navi_grp.png
f 7/7/3 8/8/3 9/9/3
f 10/10/4 11/11/4 12/12/4
usemtl None_Navi_grp.png
f 25/25/9 26/26/9 27/27/9
f 28/28/9 29/29/9 30/30/9
usemtl Material.099_Navi_grp.png
f 31/31/9 32/32/9 33/33/9
f 34/34/9 35/35/9 36/36/9
usemtl Material.098_Navi_grp.png
f 13/13/5 14/14/5 15/15/5
f 16/16/6 17/17/6 18/18/6
usemtl Material.097_Navi_grp.png
f 19/19/7 20/20/7 21/21/7
f 22/22/8 23/23/8 24/24/8
