# Blender 3.2.2
# www.blender.org
mtllib Wing L.mtl
o Wing L
v 0.837105 -3.113684 2.367832
v 2.982344 -2.198285 1.924031
v -0.753986 -0.427437 0.209477
v -0.753986 -0.427437 0.209477
v 2.982344 -2.198285 1.924031
v 1.388777 0.491651 -0.237447
v 1.254052 -0.915138 0.269496
v 4.998367 3.930429 4.763968
v -1.003978 1.363687 -0.305745
v -1.003978 1.363687 -0.305745
v 4.998367 3.930429 4.763968
v 2.746573 6.208807 4.184304
vn -0.0870 0.5922 0.8011
vn -0.0869 0.5922 0.8011
vn -0.5263 -0.3229 0.7866
vn -0.5273 -0.3209 0.7868
vt 0.321606 0.078947
vt 0.083897 0.078947
vt 0.281010 0.921053
vt 0.281010 0.921053
vt 0.083897 0.078947
vt 0.043302 0.921053
vt 0.070365 0.921053
vt 0.070365 0.078947
vt 0.301308 0.921053
vt 0.301308 0.921053
vt 0.070365 0.078947
vt 0.301308 0.078947
s 1
usemtl Material.102_Navi_grp.png
f 1/1/1 2/2/1 3/3/1
f 4/4/2 5/5/2 6/6/2
usemtl Material.098_Navi_grp.png
f 7/7/3 8/8/3 9/9/3
f 10/10/4 11/11/4 12/12/4
