# Blender v3.2.2 OBJ File: ''
# www.blender.org
mtllib WL.mtl
o Wing_L_Navi.001
v -0.190573 -4.282884 2.386188
v 1.963459 -3.367485 1.987244
v -1.736284 -1.596637 0.195105
v -1.736284 -1.596637 0.195105
v 1.963459 -3.367485 1.987244
v 0.415337 -0.677549 -0.207013
v 0.270064 -2.084338 0.297009
v 3.919788 2.761229 4.868627
v -1.975472 0.194487 -0.325221
v -1.975472 0.194487 -0.325221
v 3.919788 2.761229 4.868627
v 1.680578 5.039606 4.242106
vt 0.321606 0.078947
vt 0.083897 0.078947
vt 0.281010 0.921053
vt 0.281010 0.921053
vt 0.083897 0.078947
vt 0.043302 0.921053
vt 0.070365 0.921053
vt 0.070365 0.078947
vt 0.301308 0.921053
vt 0.301308 0.921053
vt 0.070365 0.078947
vt 0.301308 0.078947
vn -0.1037 0.5922 0.7991
vn -0.1036 0.5922 0.7991
vn -0.5426 -0.3229 0.7754
vn -0.5436 -0.3209 0.7756
usemtl Material.102_Navi_grp.png
s 1
f 1/1/1 2/2/1 3/3/1
f 4/4/2 5/5/2 6/6/2
usemtl Material.098_Navi_grp.png
f 7/7/3 8/8/3 9/9/3
f 10/10/4 11/11/4 12/12/4
