# Blender 3.1.0
# www.blender.org
mtllib Ears.mtl
o Outer Helm
v -0.159164 -3.000000 1.000000
v -0.159164 7.000000 1.000000
v -0.159164 5.500000 -4.000000
v -0.159164 0.000000 6.000000
v -0.159164 -1.500000 -4.000000
v 4.840836 2.000000 1.000000
v 3.340836 2.000000 -4.000000
v -5.159164 2.000000 1.000000
v -3.659164 2.000000 -4.000000
vn 0.6917 0.6917 -0.2075
vn 0.6917 -0.6917 -0.2075
vn 0.6509 -0.6509 0.3906
vn 0.5025 0.5025 0.7035
vn -0.6917 0.6917 -0.2075
vn -0.6917 -0.6917 -0.2075
vn -0.6509 -0.6509 0.3906
vn -0.5025 0.5025 0.7035
vt 0.375000 0.375000
vt 0.625000 0.625000
vt 0.625000 0.500000
vt 0.375000 0.500000
vt 0.375000 0.750000
vt 0.375000 0.250000
vt 0.625000 0.375000
vt 0.432552 0.625000
vt 0.375000 0.500000
vt 0.625000 0.250000
vt 0.625000 0.375000
vt 0.432552 0.625000
vt 0.375000 0.500000
vt 0.625000 0.250000
s 0
f 7/9/1 3/3/1 2/2/1 6/8/1
f 5/6/2 7/10/2 6/7/2 1/1/2
f 1/1/3 6/7/3 4/4/3
f 6/8/4 2/2/4 4/5/4
f 9/13/5 8/12/5 2/2/5 3/3/5
f 5/6/6 1/1/6 8/11/6 9/14/6
f 1/1/7 4/4/7 8/11/7
f 8/12/8 4/5/8 2/2/8
o Inner Helm
v -0.159164 5.500000 -4.000000
v 3.340836 2.000000 -4.000000
v -0.159164 -1.500000 -4.000000
v -0.159164 2.000000 1.000000
v -3.659164 2.000000 -4.000000
vn -0.6337 -0.6337 -0.4436
vn -0.6337 0.6337 -0.4436
vn 0.6337 -0.6337 -0.4436
vn 0.6337 0.6337 -0.4436
vt 0.625000 1.000000
vt 0.375000 1.000000
vt 0.375000 0.750000
vt 0.500000 0.875000
vt 0.375000 1.000000
s 0
f 11/16/9 13/18/9 10/15/9
f 12/17/10 13/18/10 11/16/10
f 14/19/11 10/15/11 13/18/11
f 12/17/12 14/19/12 13/18/12
o Ears
v -6.100000 8.000000 -2.000000
v -5.400000 2.000000 1.000000
v -6.100000 8.000000 -2.000000
v -3.900000 2.000000 -4.000000
v -6.100000 8.000000 -2.000000
v -5.400000 2.000000 1.000000
v -6.100000 8.000000 -2.000000
v -3.900000 2.000000 -4.000000
v -6.100000 8.000000 -2.000000
v -5.400000 2.000000 1.000000
v -6.100000 8.000000 -2.000000
v -3.900000 2.000000 -4.000000
v -6.100000 8.000000 -2.000000
v -5.400000 2.000000 1.000000
v -6.100000 8.000000 -2.000000
v -3.900000 2.000000 -4.000000
v -4.085607 1.950505 -4.055682
v -6.285606 7.950505 -2.055682
v -5.585607 1.950505 0.944318
v -6.285606 7.950505 -2.055682
v -6.285606 7.950505 -2.055682
v -5.585607 1.950505 0.944318
v -6.285606 7.950505 -2.055682
v -4.085607 1.950505 -4.055682
v -6.285606 7.950505 -2.055682
v -5.585607 1.950505 0.944318
v -6.285606 7.950505 -2.055682
v -4.085607 1.950505 -4.055682
v 5.781672 8.000000 -2.000000
v 5.081671 2.000000 1.000000
v 5.781672 8.000000 -2.000000
v 3.581671 2.000000 -4.000000
v 5.781672 8.000000 -2.000000
v 5.081671 2.000000 1.000000
v 5.781672 8.000000 -2.000000
v 3.581671 2.000000 -4.000000
v 5.781672 8.000000 -2.000000
v 5.081671 2.000000 1.000000
v 5.781672 8.000000 -2.000000
v 3.581671 2.000000 -4.000000
v 5.781672 8.000000 -2.000000
v 5.081671 2.000000 1.000000
v 5.781672 8.000000 -2.000000
v 3.581671 2.000000 -4.000000
v 3.767278 1.950505 -4.055682
v 5.967278 7.950505 -2.055682
v 5.267278 1.950505 0.944318
v 5.967278 7.950505 -2.055682
v 5.967278 7.950505 -2.055682
v 5.267278 1.950505 0.944318
v 5.967278 7.950505 -2.055682
v 3.767278 1.950505 -4.055682
v 5.967278 7.950505 -2.055682
v 5.267278 1.950505 0.944318
v 5.967278 7.950505 -2.055682
v 3.767278 1.950505 -4.055682
vn 0.9280 0.2475 0.2784
vn -0.0000 1.0000 -0.0000
vn 0.2370 -0.9689 0.0711
vn -0.3577 0.3839 0.8513
vn 0.1755 0.3686 -0.9128
vn -0.9280 -0.2475 -0.2784
vn -0.9280 0.2475 0.2784
vn -0.2370 -0.9689 0.0711
vn 0.3578 0.3839 0.8513
vn -0.1755 0.3686 -0.9128
vn 0.9280 -0.2475 -0.2784
vt 0.000000 0.000000
vt 1.000000 0.000000
vt 0.000000 1.000000
vt 1.000000 1.000000
vt 0.000000 0.000000
vt 1.000000 0.000000
vt 0.000000 1.000000
vt 1.000000 1.000000
vt 0.000000 0.000000
vt 1.000000 0.000000
vt 0.000000 1.000000
vt 1.000000 1.000000
vt 0.000000 0.000000
vt 1.000000 0.000000
vt 0.000000 1.000000
vt 1.000000 1.000000
vt 1.000000 1.000000
vt 0.000000 1.000000
vt 1.000000 0.000000
vt 0.000000 0.000000
vt 0.000000 0.000000
vt 1.000000 0.000000
vt 0.000000 1.000000
vt 1.000000 1.000000
vt 0.000000 0.000000
vt 1.000000 0.000000
vt 0.000000 1.000000
vt 1.000000 1.000000
vt 0.000000 0.000000
vt 1.000000 0.000000
vt 0.000000 1.000000
vt 1.000000 1.000000
vt 0.000000 0.000000
vt 1.000000 0.000000
vt 0.000000 1.000000
vt 1.000000 1.000000
vt 0.000000 0.000000
vt 1.000000 0.000000
vt 0.000000 1.000000
vt 1.000000 1.000000
vt 0.000000 0.000000
vt 1.000000 0.000000
vt 0.000000 1.000000
vt 1.000000 1.000000
vt 1.000000 1.000000
vt 0.000000 1.000000
vt 1.000000 0.000000
vt 0.000000 0.000000
vt 0.000000 0.000000
vt 1.000000 0.000000
vt 0.000000 1.000000
vt 1.000000 1.000000
vt 0.000000 0.000000
vt 1.000000 0.000000
vt 0.000000 1.000000
vt 1.000000 1.000000
s 0
f 15/20/13 16/21/13 18/23/13 17/22/13
f 22/27/14 26/31/14 25/30/14 21/26/14
f 18/23/14 22/27/14 21/26/14 17/22/14
f 15/20/14 19/24/14 20/25/14 16/21/14
f 16/21/14 20/25/14 22/27/14 18/23/14
f 17/22/14 21/26/14 19/24/14 15/20/14
f 19/24/14 23/28/14 24/29/14 20/25/14
f 20/25/14 24/29/14 26/31/14 22/27/14
f 21/26/14 25/30/14 23/28/14 19/24/14
f 27/32/14 29/34/14 41/46/14 39/44/14
f 30/35/15 28/33/15 40/45/15 42/47/15
f 28/33/16 27/32/16 39/44/16 40/45/16
f 29/34/17 30/35/17 42/47/17 41/46/17
f 24/29/14 23/28/14 27/32/14 28/33/14
f 26/31/14 24/29/14 28/33/14 30/35/14
f 23/28/14 25/30/14 29/34/14 27/32/14
f 25/30/14 26/31/14 30/35/14 29/34/14
f 38/43/14 37/42/14 41/46/14 42/47/14
f 34/39/14 33/38/14 36/41/14 35/40/14
f 33/38/14 31/36/14 38/43/14 36/41/14
f 34/39/18 32/37/18 31/36/18 33/38/18
f 31/36/14 32/37/14 37/42/14 38/43/14
f 32/37/14 34/39/14 35/40/14 37/42/14
f 35/40/14 36/41/14 40/45/14 39/44/14
f 36/41/14 38/43/14 42/47/14 40/45/14
f 37/42/14 35/40/14 39/44/14 41/46/14
f 43/48/19 45/50/19 46/51/19 44/49/19
f 50/55/14 49/54/14 53/58/14 54/59/14
f 46/51/14 45/50/14 49/54/14 50/55/14
f 43/48/14 44/49/14 48/53/14 47/52/14
f 44/49/14 46/51/14 50/55/14 48/53/14
f 45/50/14 43/48/14 47/52/14 49/54/14
f 47/52/14 48/53/14 52/57/14 51/56/14
f 48/53/14 50/55/14 54/59/14 52/57/14
f 49/54/14 47/52/14 51/56/14 53/58/14
f 55/60/14 67/72/14 69/74/14 57/62/14
f 58/63/20 70/75/20 68/73/20 56/61/20
f 56/61/21 68/73/21 67/72/21 55/60/21
f 57/62/22 69/74/22 70/75/22 58/63/22
f 52/57/14 56/61/14 55/60/14 51/56/14
f 54/59/14 58/63/14 56/61/14 52/57/14
f 51/56/14 55/60/14 57/62/14 53/58/14
f 53/58/14 57/62/14 58/63/14 54/59/14
f 66/71/14 70/75/14 69/74/14 65/70/14
f 62/67/14 63/68/14 64/69/14 61/66/14
f 61/66/14 64/69/14 66/71/14 59/64/14
f 62/67/23 61/66/23 59/64/23 60/65/23
f 59/64/14 66/71/14 65/70/14 60/65/14
f 60/65/14 65/70/14 63/68/14 62/67/14
f 63/68/14 67/72/14 68/73/14 64/69/14
f 64/69/14 68/73/14 70/75/14 66/71/14
f 65/70/14 69/74/14 67/72/14 63/68/14
