# Blender 3.1.0
# www.blender.org
mtllib Eyes.mtl
o Eye
v 1.840836 1.560000 4.000000
v 2.960835 3.800000 4.000000
v 0.720835 3.800000 4.000000
v 1.840836 6.040000 4.000000
v 1.840836 5.170881 4.000000
v 1.155396 3.800000 4.000000
v 1.840836 2.429115 4.000000
v 2.526276 3.800005 4.000000
v 1.840836 1.560000 3.999000
v 2.960835 3.800000 3.999000
v 0.720835 3.800000 3.999000
v 1.840836 6.040000 3.999000
v 1.840836 5.170881 3.999000
v 1.155396 3.800000 3.999000
v 1.840836 2.429115 3.999000
v 2.526276 3.800005 3.999000
v -2.159164 1.560000 4.000000
v -3.279164 3.800000 4.000000
v -1.039164 3.800000 4.000000
v -2.159164 6.040000 4.000000
v -2.159164 5.170881 4.000000
v -1.473725 3.800000 4.000000
v -2.159164 2.429115 4.000000
v -2.844605 3.800005 4.000000
v -2.159164 1.560000 3.999000
v -3.279164 3.800000 3.999000
v -1.039164 3.800000 3.999000
v -2.159164 6.040000 3.999000
v -2.159164 5.170881 3.999000
v -1.473725 3.800000 3.999000
v -2.159164 2.429115 3.999000
v -2.844605 3.800005 3.999000
vn -0.0000 -0.0000 -1.0000
vn -0.0000 -0.0000 1.0000
vn -0.8944 -0.4472 -0.0000
vn 0.8944 0.4472 -0.0000
vn 0.8944 -0.4472 -0.0000
vn -0.8944 0.4472 -0.0000
vt 0.000000 0.000000
vt 1.000000 0.000000
vt 0.000000 1.000000
vt 1.000000 1.000000
vt 0.692759 0.784933
vt 0.284486 0.728228
vt 0.261804 0.285933
vt 0.769311 0.192371
vt 0.000000 0.000000
vt 1.000000 0.000000
vt 0.000000 1.000000
vt 1.000000 1.000000
vt 0.692759 0.784933
vt 0.284486 0.728228
vt 0.261804 0.285933
vt 0.769311 0.192371
vt 0.000000 0.000000
vt 1.000000 0.000000
vt 0.000000 1.000000
vt 1.000000 1.000000
vt 0.692759 0.784933
vt 0.284486 0.728228
vt 0.261804 0.285933
vt 0.769311 0.192371
vt 0.000000 0.000000
vt 1.000000 0.000000
vt 0.000000 1.000000
vt 1.000000 1.000000
vt 0.692759 0.784933
vt 0.284486 0.728228
vt 0.261804 0.285933
vt 0.769311 0.192371
s 0
f 1/1/1 3/3/1 6/6/1 7/7/1 8/8/1 2/2/1
f 9/9/2 10/10/2 16/16/2 15/15/2 14/14/2 11/11/2
f 3/3/1 4/4/1 2/2/1 8/8/1 5/5/1 6/6/1
f 11/11/2 14/14/2 13/13/2 16/16/2 10/10/2 12/12/2
f 2/2/3 4/4/3 12/12/3 10/10/3
f 3/3/4 1/1/4 9/9/4 11/11/4
f 4/4/5 3/3/5 11/11/5 12/12/5
f 1/1/6 2/2/6 10/10/6 9/9/6
f 17/17/1 18/18/1 24/24/1 23/23/1 22/22/1 19/19/1
f 25/25/2 27/27/2 30/30/2 31/31/2 32/32/2 26/26/2
f 19/19/1 22/22/1 21/21/1 24/24/1 18/18/1 20/20/1
f 27/27/2 28/28/2 26/26/2 32/32/2 29/29/2 30/30/2
f 18/18/5 26/26/5 28/28/5 20/20/5
f 19/19/6 27/27/6 25/25/6 17/17/6
f 20/20/3 28/28/3 27/27/3 19/19/3
f 17/17/4 25/25/4 26/26/4 18/18/4
