# Blender 3.1.0
# www.blender.org
mtllib Eyes.mtl
o Eyes
v 2.000000 6.000000 3.900000
v 3.000000 4.000000 3.900000
v 2.000000 6.000000 4.000000
v 3.000000 4.000000 4.000000
v 1.000000 4.000000 3.900000
v 2.000000 2.000000 3.900000
v 1.000000 4.000000 4.000000
v 2.000000 2.000000 4.000000
v 2.000000 5.000000 4.000000
v 1.500000 4.000000 4.000000
v 2.000001 3.000000 4.000000
v 2.500000 4.000000 4.000000
v 2.500001 4.000000 3.900000
v 2.000000 5.000001 3.900000
v 1.500000 4.000000 3.900000
v 2.000001 3.000000 3.900000
v -2.318329 6.000000 3.900000
v -3.318329 4.000000 3.900000
v -2.318329 6.000000 4.000000
v -3.318329 4.000000 4.000000
v -1.318329 4.000000 3.900000
v -2.318329 2.000000 3.900000
v -1.318329 4.000000 4.000000
v -2.318329 2.000000 4.000000
v -2.318329 5.000000 4.000000
v -1.818329 4.000000 4.000000
v -2.318330 3.000000 4.000000
v -2.818328 4.000000 4.000000
v -2.818330 4.000000 3.900000
v -2.318329 5.000001 3.900000
v -1.818329 4.000000 3.900000
v -2.318330 3.000000 3.900000
vn 0.8944 -0.4472 -0.0000
vn -0.0000 -0.0000 -1.0000
vn -0.8944 -0.4472 -0.0000
vn -0.0000 -0.0000 1.0000
vn -0.8944 0.4472 -0.0000
vn 0.8944 0.4472 -0.0000
vt 0.125000 0.500000
vt 0.875000 0.500000
vt 0.625000 0.500000
vt 0.625000 0.000000
vt 0.625000 0.500000
vt 0.375000 0.500000
vt 0.625000 0.750000
vt 0.125000 0.750000
vt 0.875000 0.750000
vt 0.625000 0.250000
vt 0.625000 0.750000
vt 0.375000 0.750000
vt 0.625000 0.750000
vt 0.375000 0.500000
vt 0.625000 0.250000
vt 0.375000 0.000000
vt 0.375000 0.250000
vt 0.375000 0.750000
vt 0.625000 0.500000
vt 0.375000 0.750000
vt 0.625000 1.000000
vt 0.375000 0.250000
vt 0.375000 0.500000
vt 0.375000 1.000000
vt 0.552295 0.816572
vt 0.533642 0.949210
vt 0.461106 0.932630
vt 0.421729 0.818644
vt 0.450117 0.429117
vt 0.556118 0.420296
vt 0.552609 0.322973
vt 0.449628 0.340539
vt 0.125000 0.500000
vt 0.875000 0.500000
vt 0.625000 0.500000
vt 0.625000 0.000000
vt 0.625000 0.500000
vt 0.375000 0.500000
vt 0.625000 0.750000
vt 0.125000 0.750000
vt 0.875000 0.750000
vt 0.625000 0.250000
vt 0.625000 0.750000
vt 0.375000 0.750000
vt 0.625000 0.750000
vt 0.375000 0.500000
vt 0.625000 0.250000
vt 0.375000 0.000000
vt 0.375000 0.250000
vt 0.375000 0.750000
vt 0.625000 0.500000
vt 0.375000 0.750000
vt 0.625000 1.000000
vt 0.375000 0.250000
vt 0.375000 0.500000
vt 0.375000 1.000000
vt 0.552295 0.816572
vt 0.533642 0.949210
vt 0.461106 0.932630
vt 0.421729 0.818644
vt 0.450117 0.429117
vt 0.556118 0.420296
vt 0.552609 0.322973
vt 0.449628 0.340539
s 0
f 6/16/1 2/4/1 4/10/1 8/22/1
f 6/17/2 5/15/2 15/31/2 16/32/2 13/29/2 2/6/2
f 8/23/3 7/19/3 5/13/3 6/18/3
f 4/12/4 3/7/4 7/21/4 10/26/4 9/25/4 12/28/4
f 1/1/5 5/14/5 7/20/5 3/8/5
f 2/5/6 1/2/6 3/9/6 4/11/6
f 11/27/4 10/26/4 7/21/4 8/24/4 4/12/4 12/28/4
f 2/6/2 13/29/2 14/30/2 15/31/2 5/15/2 1/3/2
f 12/28/5 13/29/5 16/32/5 11/27/5
f 11/27/6 16/32/6 15/31/6 10/26/6
f 9/25/3 14/30/3 13/29/3 12/28/3
f 10/26/1 15/31/1 14/30/1 9/25/1
f 22/48/3 24/54/3 20/42/3 18/36/3
f 22/49/2 18/38/2 29/61/2 32/64/2 31/63/2 21/47/2
f 24/55/1 22/50/1 21/45/1 23/51/1
f 20/44/4 28/60/4 25/57/4 26/58/4 23/53/4 19/39/4
f 17/33/6 19/40/6 23/52/6 21/46/6
f 18/37/5 20/43/5 19/41/5 17/34/5
f 27/59/4 28/60/4 20/44/4 24/56/4 23/53/4 26/58/4
f 18/38/2 17/35/2 21/47/2 31/63/2 30/62/2 29/61/2
f 28/60/6 27/59/6 32/64/6 29/61/6
f 27/59/5 26/58/5 31/63/5 32/64/5
f 25/57/1 28/60/1 29/61/1 30/62/1
f 26/58/3 25/57/3 30/62/3 31/63/3
