# Blender 3.1.0
# www.blender.org
mtllib Foot.mtl
o Foot
v -1.000000 -9.000000 -4.000000
v 1.000000 -6.000000 8.000000
v -1.000000 -6.000000 8.000000
v 1.000000 -9.000000 8.000000
v -1.000000 -9.000000 8.000000
v -1.000000 -3.000000 -4.000000
v 1.000000 -9.000000 -4.000000
v 1.000000 -3.000000 -4.000000
v 2.000000 -8.000000 0.964497
v -2.000000 -3.994083 1.964497
v 2.000000 -3.994083 1.964497
v -2.000000 -8.000000 0.964497
vn 0.9890 -0.0209 0.1465
vn -0.9835 0.0180 -0.1800
vn -0.0000 -0.0000 1.0000
vn -0.0000 0.9490 0.3154
vn -0.0000 0.9864 0.1644
vn -0.9890 -0.0209 0.1465
vn 0.9835 0.0180 -0.1800
vt 0.375000 0.750000
vt 0.625000 0.500000
vt 0.625000 0.750000
vt 0.625000 1.000000
vt 0.875000 0.750000
vt 0.625000 0.500000
vt 0.375000 0.500000
vt 0.375000 0.750000
vt 0.375000 1.000000
vt 0.375000 0.500000
vt 0.625000 0.750000
vt 0.875000 0.500000
vt 0.375000 0.250000
vt 0.625000 0.500000
vt 0.625000 0.250000
vt 0.375000 0.374260
vt 0.875000 0.624260
vt 0.625000 0.625740
vt 0.625000 0.624260
vt 0.625000 0.374260
vt 0.375000 0.625740
s 0
f 9/16/1 11/20/1 2/2/1 4/7/1
f 12/21/2 10/18/2 6/11/2 1/1/2
f 4/8/3 2/3/3 3/4/3 5/9/3
f 11/19/4 10/17/4 3/5/4 2/3/4
f 8/14/5 6/12/5 10/17/5 11/19/5
f 5/10/6 3/6/6 10/18/6 12/21/6
f 7/13/7 8/15/7 11/20/7 9/16/7
