# Blender 3.1.0
# www.blender.org
mtllib Hand.mtl
o Hand
v 0.000000 -3.000000 2.000000
v 0.000000 -5.000000 1.500000
v 0.000000 -5.000000 3.000000
v 0.000000 -5.000000 -3.000000
v 0.000000 -3.000000 -2.000000
v 0.000000 -5.000000 -1.500000
v 2.000000 -3.000000 0.000000
v 3.000000 -5.000000 0.000000
v 1.500000 -5.000000 0.000000
v -1.500000 -5.000000 0.000000
v -2.000000 -3.000000 0.000000
v -3.000000 -5.000000 0.000000
v -1.000000 -8.000000 1.000000
v 1.000000 -8.000000 -1.000000
v 1.000000 -8.000000 1.000000
v -1.000000 -8.000000 -1.000000
vn -0.0000 -0.3162 -0.9487
vn -0.6667 0.3333 -0.6667
vn 0.9487 -0.3162 -0.0000
vn 0.6667 0.3333 -0.6667
vn -0.9487 -0.3162 -0.0000
vn -0.0000 -0.0000 1.0000
vn -0.6667 0.3333 0.6667
vn 0.6667 0.3333 0.6667
vn -0.6882 -0.2294 0.6882
vn -0.0000 -0.3162 0.9487
vn 0.6882 -0.2294 -0.6882
vn -0.6882 -0.2294 -0.6882
vn 0.6882 -0.2294 0.6882
vt 0.625000 0.687500
vt 0.125000 0.687500
vt 0.375000 0.687500
vt 0.375000 0.562500
vt 0.625000 0.562500
vt 0.125000 0.562500
vt 0.625000 0.625000
vt 0.375000 0.625000
vt 0.125000 0.625000
vt 0.375000 0.250000
vt 0.375000 1.000000
vt 0.625000 0.500000
vt 0.625000 0.750000
vt 0.375000 0.500000
vt 0.375000 0.750000
vt 0.125000 0.687500
vt 0.375000 0.687500
vt 0.375000 0.750000
vt 0.125000 0.562500
vt 0.375000 0.625000
vt 0.375000 0.562500
vt 0.125000 0.625000
vt 0.375000 0.625000
vt 0.375000 0.687500
vt 0.375000 0.562500
vt 0.375000 0.500000
vt 0.375000 1.000000
s 0
f 9/9/1 8/8/1 15/22/1
f 12/14/2 11/12/2 5/5/2 4/4/2
f 4/4/3 6/6/3 16/25/3
f 4/4/4 5/5/4 7/7/4 8/8/4
f 6/6/5 4/4/5 14/19/5
f 10/10/6 11/12/6 12/14/6
f 3/3/7 1/1/7 11/13/7 12/15/7
f 8/8/8 7/7/8 1/1/8 3/3/8
f 2/2/3 3/3/3 13/16/3
f 3/3/9 12/15/9 13/17/9
f 12/15/1 10/11/1 13/18/1
f 8/8/10 9/9/10 14/20/10
f 4/4/11 8/8/11 14/21/11
f 12/14/12 4/4/12 16/26/12
f 8/8/13 3/3/13 15/23/13
f 3/3/5 2/2/5 15/24/5
f 10/11/10 12/15/10 16/27/10
