# Blender 3.1.0
# www.blender.org
mtllib Inner Hand.mtl
o Inner Hand
v 0.000000 -3.000000 2.000000
v 0.000000 -5.000000 1.500000
v 0.000000 -3.000000 -2.000000
v 0.000000 -5.000000 -1.500000
v 2.000000 -3.000000 0.000000
v 1.500000 -5.000000 0.000000
v -1.500000 -5.000000 0.000000
v -2.000000 -3.000000 0.000000
v -1.000000 -8.000000 1.000000
v 1.000000 -8.000000 -1.000000
v 1.000000 -8.000000 1.000000
v -1.000000 -8.000000 -1.000000
vn -0.6963 0.1741 0.6963
vn -0.6963 0.1741 -0.6963
vn 0.6963 0.1741 0.6963
vn 0.6963 0.1741 -0.6963
vn 0.7022 -0.1170 -0.7022
vn -0.7022 -0.1170 0.7022
vn -0.7022 -0.1170 -0.7022
vn 0.7022 -0.1170 0.7022
vt 0.625000 0.062500
vt 0.375000 0.062500
vt 0.625000 0.187500
vt 0.375000 0.187500
vt 0.625000 0.125000
vt 0.375000 0.125000
vt 0.375000 0.000000
vt 0.375000 0.250000
vt 0.625000 0.250000
vt 0.625000 0.000000
vt 0.375000 0.000000
vt 0.375000 0.125000
vt 0.375000 0.062500
vt 0.375000 0.187500
s 0
f 6/6/1 5/5/1 3/3/1 4/4/1
f 2/2/2 1/1/2 5/5/2 6/6/2
f 4/4/3 3/3/3 8/9/3 7/8/3
f 7/7/4 8/10/4 1/1/4 2/2/4
f 7/7/5 2/2/5 9/11/5
f 6/6/6 4/4/6 10/12/6
f 2/2/7 6/6/7 11/13/7
f 4/4/8 7/8/8 12/14/8
