# Blender 3.1.0
# www.blender.org
mtllib Inner Hand.mtl
o Inner Hand
v -6.000000 -3.000000 6.000000
v 2.000000 3.000000 2.000000
v -4.000000 3.000000 2.000000
v 2.000000 3.000000 4.000000
v -2.000000 3.000000 4.000000
v 6.000000 -3.000000 6.000000
v -2.000000 3.000000 2.000000
v 4.000000 3.000000 2.000000
v -6.000000 -3.000000 -6.000000
v -4.000000 3.000000 -2.000000
v 2.000000 3.000000 -4.000000
v 2.000000 3.000000 -2.000000
v -2.000000 3.000000 -2.000000
v 6.000000 -3.000000 -6.000000
v -2.000000 3.000000 -4.000000
v 4.000000 3.000000 -2.000000
v -2.000000 5.000000 2.000000
v 2.000000 5.000000 2.000000
v 2.000000 5.000000 -2.000000
v -2.000000 5.000000 -2.000000
vn -0.0000 -0.5547 -0.8321
vn 0.8321 -0.5547 -0.0000
vn -0.8321 -0.5547 -0.0000
vn -0.0000 -0.0000 -1.0000
vn -0.0000 -0.5547 0.8321
vn 1.0000 -0.0000 -0.0000
vn -1.0000 -0.0000 -0.0000
vn -0.0000 -0.0000 1.0000
vt 0.375000 0.250000
vt 0.375000 0.500000
vt 0.625000 0.250000
vt 0.625000 0.250000
vt 0.625000 0.000000
vt 0.625000 0.750000
vt 0.375000 0.250000
vt 0.375000 0.000000
vt 0.625000 0.500000
vt 0.625000 0.500000
vt 0.375000 0.500000
vt 0.375000 0.750000
vt 0.625000 1.000000
vt 0.625000 0.250000
vt 0.625000 0.000000
vt 0.625000 1.000000
vt 0.625000 0.750000
vt 0.375000 0.000000
vt 0.375000 0.750000
vt 0.625000 0.500000
vt 0.625000 0.750000
vt 0.625000 0.500000
vt 0.625000 0.750000
vt 0.625000 0.500000
vt 0.625000 0.250000
vt 0.625000 0.250000
vt 0.625000 1.000000
vt 0.625000 0.750000
vt 0.625000 1.000000
s 0
f 1/1/1 3/4/1 7/9/1
f 1/2/2 7/9/2 5/6/2
f 6/7/1 2/3/1 8/10/1
f 6/8/3 4/5/3 2/3/3
f 8/10/4 2/3/4 18/24/4
f 9/11/2 15/20/2 13/17/2
f 9/12/5 13/17/5 10/13/5
f 13/17/6 15/20/6 20/28/6
f 14/18/3 12/15/3 11/14/3
f 14/19/5 16/21/5 12/16/5
f 11/14/7 12/15/7 19/26/7
f 7/9/4 3/4/4 17/22/4
f 5/6/6 7/9/6 17/23/6
f 2/3/7 4/5/7 18/25/7
f 12/16/8 16/21/8 19/27/8
f 10/13/8 13/17/8 20/29/8
