# Blender 3.1.0
# www.blender.org
mtllib Outer Helm.mtl
o Outer Helm
v -0.159164 -3.000000 1.000000
v -0.159164 7.000000 1.000000
v -0.159164 5.500000 -4.000000
v -0.159164 0.000000 6.000000
v -0.159164 -1.500000 -4.000000
v 4.840836 2.000000 1.000000
v 3.340836 2.000000 -4.000000
v 5.026121 1.949727 0.943947
v 3.526121 1.949727 -4.056053
v -5.159164 2.000000 1.000000
v -3.659164 2.000000 -4.000000
v -5.344450 1.949727 0.943947
v -3.844450 1.949727 -4.056053
vn 0.6917 0.6917 -0.2075
vn 0.6917 -0.6917 -0.2075
vn 0.6509 -0.6509 0.3906
vn 0.5025 0.5025 0.7035
vn -0.2408 -0.9679 0.0722
vn -0.6917 0.6917 -0.2075
vn -0.6917 -0.6917 -0.2075
vn -0.6509 -0.6509 0.3906
vn -0.5025 0.5025 0.7035
vn 0.2408 -0.9679 0.0722
vt 0.375000 0.375000
vt 0.625000 0.625000
vt 0.625000 0.500000
vt 0.375000 0.500000
vt 0.375000 0.750000
vt 0.375000 0.250000
vt 0.625000 0.375000
vt 0.432552 0.625000
vt 0.625000 0.250000
vt 0.375000 0.500000
vt 0.432552 0.625000
vt 0.375000 0.500000
vt 0.625000 0.375000
vt 0.432552 0.625000
vt 0.625000 0.250000
vt 0.375000 0.500000
vt 0.432552 0.625000
vt 0.375000 0.500000
s 0
f 7/10/1 3/3/1 2/2/1 6/8/1
f 5/6/2 7/9/2 6/7/2 1/1/2
f 1/1/3 6/7/3 4/4/3
f 6/8/4 2/2/4 4/5/4
f 6/8/5 7/10/5 9/12/5 8/11/5
f 11/16/6 10/14/6 2/2/6 3/3/6
f 5/6/7 1/1/7 10/13/7 11/15/7
f 1/1/8 4/4/8 10/13/8
f 10/14/9 4/5/9 2/2/9
f 10/14/10 12/17/10 13/18/10 11/16/10
