# Blender 3.1.0
# www.blender.org
mtllib Outer Helm.mtl
o Outer Helm
v -0.159164 -3.000000 1.000000
v -0.159164 -1.500000 -4.000000
v 3.340836 2.000000 -4.000000
v -3.659164 2.000000 -4.000000
v -0.159164 7.000000 1.000000
v -0.159164 5.500000 -4.000000
v -0.159164 0.000000 6.000000
v 4.840836 2.000000 1.000000
v 3.340836 2.000000 -4.000000
v -5.159164 2.000000 1.000000
v -3.659164 2.000000 -4.000000
vn 0.6917 -0.6917 -0.2075
vn -0.6917 -0.6917 -0.2075
vn 0.6917 0.6917 -0.2075
vn 0.5025 0.5025 0.7035
vn -0.6917 0.6917 -0.2075
vn -0.5025 0.5025 0.7035
vt 0.375000 0.375000
vt 0.375000 0.250000
vt 0.625000 0.250000
vt 0.625000 0.250000
vt 0.625000 0.625000
vt 0.625000 0.500000
vt 0.375000 0.750000
vt 0.432552 0.625000
vt 0.375000 0.500000
vt 0.432552 0.625000
vt 0.375000 0.500000
s 0
f 2/2/1 3/3/1 1/1/1
f 2/2/2 1/1/2 4/4/2
f 9/9/3 6/6/3 5/5/3 8/8/3
f 8/8/4 5/5/4 7/7/4
f 11/11/5 10/10/5 5/5/5 6/6/5
f 10/10/6 7/7/6 5/5/6
