# Blender 3.1.0
# www.blender.org
mtllib Outer Helm.mtl
o Outer Helm
v -0.159164 7.000000 1.000000
v -0.159164 5.500000 -4.000000
v -0.159164 0.000000 6.000000
v 4.840836 2.000000 1.000000
v 3.340836 2.000000 -4.000000
v -5.159164 2.000000 1.000000
v -3.659164 2.000000 -4.000000
vn 0.6917 0.6917 -0.2075
vn 0.5025 0.5025 0.7035
vn -0.6917 0.6917 -0.2075
vn -0.5025 0.5025 0.7035
vt 0.625000 0.625000
vt 0.625000 0.500000
vt 0.375000 0.750000
vt 0.432552 0.625000
vt 0.375000 0.500000
vt 0.432552 0.625000
vt 0.375000 0.500000
s 0
f 5/5/1 2/2/1 1/1/1 4/4/1
f 4/4/2 1/1/2 3/3/2
f 7/7/3 6/6/3 1/1/3 2/2/3
f 6/6/4 3/3/4 1/1/4
