# Blender 3.1.0
# www.blender.org
mtllib Pupils.mtl
o Pupil
v 1.840836 5.170881 4.000000
v 1.155396 3.800000 4.000000
v 1.840836 2.429115 4.000000
v 2.526276 3.800005 4.000000
v 1.840836 5.170881 3.999000
v 1.155396 3.800000 3.999000
v 1.840836 2.429115 3.999000
v 2.526276 3.800005 3.999000
v -2.159164 5.170881 4.000000
v -1.473725 3.800000 4.000000
v -2.159164 2.429115 4.000000
v -2.844605 3.800005 4.000000
v -2.159164 5.170881 3.999000
v -1.473725 3.800000 3.999000
v -2.159164 2.429115 3.999000
v -2.844605 3.800005 3.999000
vn -0.0000 -0.0000 -1.0000
vn -0.0000 -0.0000 1.0000
vt 0.692759 0.784933
vt 0.284486 0.728228
vt 0.261804 0.285933
vt 0.769311 0.192371
vt 0.692759 0.784933
vt 0.284486 0.728228
vt 0.261804 0.285933
vt 0.769311 0.192371
vt 0.692759 0.784933
vt 0.284486 0.728228
vt 0.261804 0.285933
vt 0.769311 0.192371
vt 0.692759 0.784933
vt 0.284486 0.728228
vt 0.261804 0.285933
vt 0.769311 0.192371
s 0
f 1/1/1 4/4/1 3/3/1 2/2/1
f 5/5/2 6/6/2 7/7/2 8/8/2
f 9/9/1 10/10/1 11/11/1 12/12/1
f 13/13/2 16/16/2 15/15/2 14/14/2
