# Blender 3.1.0
# www.blender.org
mtllib test.mtl
o Tringle
v -1.500000 -6.000000 1.500000
v 0.000000 10.000000 0.000000
v -1.500000 -6.000000 -1.500000
v 1.500000 -6.000000 1.500000
v 1.500000 -6.000000 -1.500000
v -3.000000 7.000000 3.000000
v -3.000000 7.000000 -3.000000
v 3.000000 7.000000 -3.000000
v 3.000000 7.000000 3.000000
vn -0.7071 0.7071 -0.0000
vn -0.0000 0.7071 -0.7071
vn 0.7071 0.7071 -0.0000
vn -0.0000 0.7071 0.7071
vn -0.0000 -1.0000 -0.0000
vn -0.0000 -0.1146 0.9934
vn 0.9934 -0.1146 -0.0000
vn -0.0000 -0.1146 -0.9934
vn -0.9934 -0.1146 -0.0000
vt 0.125000 0.750000
vt 0.375000 1.000000
vt 0.375000 0.000000
vt 0.625000 0.250000
vt 0.625000 0.500000
vt 0.625000 0.750000
vt 0.625000 1.000000
vt 0.125000 0.500000
vt 0.375000 0.250000
vt 0.375000 0.750000
vt 0.375000 0.500000
vt 0.500000 1.000000
vt 0.500000 0.000000
vt 0.500000 0.250000
vt 0.500000 0.500000
vt 0.500000 0.750000
s 0
f 6/13/1 2/4/1 7/14/1
f 7/14/2 2/5/2 8/15/2
f 8/15/3 2/6/3 9/16/3
f 9/16/4 2/7/4 6/12/4
f 3/8/5 5/11/5 4/10/5 1/1/5
f 4/10/6 9/16/6 6/12/6 1/2/6
f 5/11/7 8/15/7 9/16/7 4/10/7
f 3/9/8 7/14/8 8/15/8 5/11/8
f 1/3/9 6/13/9 7/14/9 3/9/9
