# Blender 3.1.0
# www.blender.org
mtllib Inner Limb.mtl
o Limb Inner
v 0.000000 7.000000 0.000000
v -2.100000 11.000000 2.000000
v -2.100000 11.000000 -2.000000
v 2.100000 11.000000 -2.000000
v 2.100000 11.000000 2.000000
v 0.000000 7.000000 0.000000
v 0.000000 -5.000000 0.000000
v -2.100000 11.000000 -2.000000
v 2.100000 11.000000 -2.000000
vn -0.8854 0.4648 -0.0000
vn 0.8854 0.4648 -0.0000
vn -0.0000 0.4472 -0.8944
vn -0.0000 0.4472 0.8944
vn -0.0000 -0.1240 -0.9923
vt 0.625000 0.750000
vt 0.625000 0.250000
vt 0.625000 1.000000
vt 0.500000 0.000000
vt 0.500000 1.000000
vt 0.500000 0.250000
vt 0.500000 0.500000
vt 0.500000 0.750000
vt 0.625000 0.500000
vt 0.375000 0.250000
vt 0.500000 0.250000
vt 0.500000 0.500000
s 0
f 4/7/1 1/1/1 5/8/1
f 2/4/2 1/2/2 3/6/2
f 5/8/3 1/3/3 2/5/3
f 8/11/4 6/9/4 9/12/4
f 7/10/5 8/11/5 9/12/5
