# Blender 3.1.0
# www.blender.org
mtllib Inner Helm.mtl
o Inner Helm
v -0.159164 -3.000000 1.000000
v -0.159164 0.000000 6.000000
v -0.159164 -1.500000 -4.000000
v 4.840836 2.000000 1.000000
v -0.159164 5.500000 -4.000000
v 3.340836 2.000000 -4.000000
v -0.159164 2.000000 1.000000
v -5.159164 2.000000 1.000000
v -3.659164 2.000000 -4.000000
vn 0.6509 -0.6509 0.3906
vn -0.6337 -0.6337 -0.4436
vn -0.6337 0.6337 -0.4436
vn 0.6917 -0.6917 -0.2075
vn -0.6509 -0.6509 0.3906
vn 0.6337 -0.6337 -0.4436
vn 0.6337 0.6337 -0.4436
vn -0.6917 -0.6917 -0.2075
vt 0.375000 0.375000
vt 0.375000 0.500000
vt 0.375000 0.750000
vt 0.375000 0.312500
vt 0.625000 0.375000
vt 0.625000 1.000000
vt 0.375000 1.000000
vt 0.500000 0.875000
vt 0.625000 0.375000
vt 0.375000 1.000000
s 0
f 1/1/1 4/5/1 2/2/1
f 6/7/2 7/8/2 5/6/2
f 3/3/3 7/8/3 6/7/3
f 4/5/4 1/1/4 3/4/4
f 1/1/5 2/2/5 8/9/5
f 9/10/6 5/6/6 7/8/6
f 3/3/7 9/10/7 7/8/7
f 8/9/8 3/4/8 1/1/8
