# Blender v3.2.0 OBJ File: 'Player 3.blend'
# www.blender.org
mtllib Mine_Core.mtl
o Mine_Core_Cube.005
v 0.000000 3.000000 0.000000
v 3.000000 0.000000 0.000000
v 0.000000 0.000000 3.000000
v -3.000000 0.000000 0.000000
v 0.000000 0.000000 -3.000000
v 0.000000 -3.000000 0.000000
vt 0.500000 0.625000
vt 0.625000 0.750000
vt 0.500000 0.750000
vt 0.500000 0.625000
vt 0.500000 0.750000
vt 0.625000 0.750000
vn 0.5774 0.5774 0.5774
vn -0.5774 0.5774 0.5774
vn 0.5774 0.5774 -0.5774
vn -0.5774 0.5774 -0.5774
vn 0.5774 -0.5774 0.5774
vn -0.5774 -0.5774 0.5774
vn 0.5774 -0.5774 -0.5774
vn -0.5774 -0.5774 -0.5774
usemtl None
s off
f 2/1/1 1/2/1 3/3/1
f 4/4/2 3/3/2 1/2/2
f 2/1/3 5/5/3 1/2/3
f 4/4/4 1/2/4 5/5/4
f 2/1/5 3/3/5 6/6/5
f 4/4/6 6/6/6 3/3/6
f 2/1/7 6/6/7 5/5/7
f 4/4/8 5/5/8 6/6/8
