# Blender v3.1.2 OBJ File: ''
# www.blender.org
mtllib Sphere Windows.mtl
o Windows_Cube
v 0.723607 -0.447220 0.525725
v -0.276388 -0.447220 0.850649
v -0.276388 -0.447220 -0.850649
v 0.723607 -0.447220 -0.525725
v 0.276388 0.447220 0.850649
v -0.723607 0.447220 0.525725
v -0.723607 0.447220 -0.525725
v 0.276388 0.447220 -0.850649
v 0.425323 -0.850654 0.309011
v 0.262869 -0.525738 0.809012
v 0.425323 -0.850654 -0.309011
v -0.688189 -0.525736 0.499997
v -0.688189 -0.525736 -0.499997
v 0.262869 -0.525738 -0.809012
v 0.688189 0.525736 0.499997
v -0.262869 0.525738 0.809012
v -0.262869 0.525738 -0.809012
v 0.688189 0.525736 -0.499997
v -0.425323 0.850654 0.309011
v -0.425323 0.850654 -0.309011
v 0.849340 -0.200000 0.405928
v -0.448526 -0.200000 -0.827635
v 0.648526 -0.200000 -0.682327
v 0.849340 -0.200000 -0.405928
v 0.648526 -0.200000 0.682327
v -0.448526 -0.200000 0.827635
v 0.464181 -0.200000 -0.809015
v -0.625981 -0.200000 -0.691460
v -0.851058 -0.200000 -0.381667
v -0.851058 -0.200000 0.381667
v -0.625981 -0.200000 0.691460
v 0.464181 -0.200000 0.809015
v 0.448526 0.200000 0.827635
v -0.648526 0.200000 0.682327
v -0.849340 0.200000 -0.405928
v -0.849340 0.200000 0.405928
v -0.648526 0.200000 -0.682327
v 0.448526 0.200000 -0.827635
v 0.851058 0.200000 -0.381667
v 0.625981 0.200000 -0.691460
v -0.464181 0.200000 -0.809015
v -0.464181 0.200000 0.809015
v 0.625981 0.200000 0.691460
v 0.851058 0.200000 0.381667
v -0.200000 -0.458342 0.844751
v -0.200000 -0.323617 0.891927
v -0.200000 0.516584 -0.813866
v -0.200000 -0.717710 0.615547
v -0.200000 -0.717710 -0.615547
v -0.200000 -0.458342 -0.844751
v -0.200000 0.516584 0.813866
v -0.200000 0.850654 -0.382224
v -0.200000 0.573765 -0.763335
v -0.200000 0.850654 0.382224
v -0.200000 0.573765 0.763335
v -0.200000 0.400000 -0.854689
v -0.200000 -0.827451 -0.499995
v -0.200000 -0.850654 -0.448321
v -0.200000 -0.850654 0.448321
v -0.200000 -0.827451 0.499995
v -0.200000 -0.323617 -0.891927
v -0.200000 -0.200000 -0.908386
v -0.200000 -0.200000 0.908386
v -0.200000 0.400000 0.854689
v -0.200000 0.200000 0.894853
v -0.200000 0.200000 -0.894853
v 0.200000 0.323617 -0.891927
v 0.200000 0.458342 -0.844751
v 0.200000 0.717710 0.615547
v 0.200000 0.717710 -0.615547
v 0.200000 -0.516584 -0.813866
v 0.200000 0.850654 -0.448321
v 0.200000 0.827451 -0.499995
v 0.200000 0.850654 0.448321
v 0.200000 0.827451 0.499995
v 0.200000 -0.400000 -0.854689
v 0.200000 -0.400000 0.854689
v 0.200000 -0.850654 -0.382224
v 0.200000 -0.573765 -0.763335
v 0.200000 -0.573765 0.763335
v 0.200000 -0.850654 0.382224
v 0.200000 -0.200000 0.894853
v 0.200000 -0.200000 -0.894853
v 0.200000 0.323617 0.891927
v 0.200000 0.200000 -0.908386
v 0.200000 0.200000 0.908386
v 0.200000 -0.516584 0.813866
v 0.200000 0.458342 0.844751
v -0.802318 0.495866 -0.200000
v 0.811931 0.478624 -0.200000
v 0.802318 -0.495866 -0.200000
v 0.275280 -0.903340 -0.200000
v -0.811931 -0.478624 -0.200000
v -0.275280 0.903340 -0.200000
v 0.590714 0.720685 -0.200000
v -0.425323 0.850654 -0.200000
v -0.575367 0.736031 -0.200000
v -0.380419 -0.850653 -0.200000
v -0.590714 -0.720685 -0.200000
v 0.575367 -0.736031 -0.200000
v 0.425323 -0.850654 -0.200000
v -0.915397 -0.200000 -0.200000
v 0.910330 -0.200000 -0.200000
v -0.910330 0.200000 -0.200000
v 0.915397 0.200000 -0.200000
v -0.200000 0.911508 -0.200000
v -0.200000 -0.901906 -0.200000
v 0.380419 0.850653 -0.200000
v 0.200000 -0.911508 -0.200000
v 0.200000 0.901906 -0.200000
v 0.802318 -0.495866 0.200000
v -0.811931 -0.478624 0.200000
v 0.275280 -0.903340 0.200000
v 0.811931 0.478624 0.200000
v -0.802318 0.495866 0.200000
v -0.275280 0.903340 0.200000
v -0.425323 0.850654 0.200000
v -0.575367 0.736031 0.200000
v 0.380419 0.850653 0.200000
v 0.590714 0.720685 0.200000
v -0.590714 -0.720685 0.200000
v 0.575367 -0.736031 0.200000
v 0.425323 -0.850654 0.200000
v -0.915397 -0.200000 0.200000
v 0.910330 -0.200000 0.200000
v -0.910330 0.200000 0.200000
v 0.915397 0.200000 0.200000
v -0.380419 -0.850653 0.200000
v -0.200000 0.911508 0.200000
v -0.200000 -0.901906 0.200000
v 0.200000 -0.911508 0.200000
v 0.200000 0.901906 0.200000
vt 0.211238 0.050956
vt 0.227273 0.078731
vt 0.192424 0.078731
vt 0.200707 0.046650
vt 0.915599 0.051712
vt 0.945150 0.078730
vt 0.900000 0.078731
vt 0.720765 0.051712
vt 0.736364 0.078731
vt 0.691214 0.078731
vt 0.526567 0.046650
vt 0.534850 0.078730
vt 0.500000 0.078731
vt 0.516036 0.050956
vt 0.000000 0.314921
vt 0.090910 0.314921
vt 0.045455 0.393651
vt 0.625765 0.314921
vt 0.636364 0.314921
vt 0.629645 0.326558
vt 0.400001 0.314921
vt 0.454546 0.314921
vt 0.427273 0.362159
vt 0.681818 0.393651
vt 0.646969 0.393651
vt 0.727273 0.314921
vt 0.847601 0.393651
vt 0.847601 0.365877
vt 0.863636 0.393651
vt 0.852766 0.314921
vt 0.909091 0.314921
vt 0.168941 0.314921
vt 0.181819 0.314921
vt 0.151343 0.367707
vt 0.426383 0.266141
vt 0.482709 0.266141
vt 0.520328 0.271400
vt 0.545455 0.314921
vt 0.625493 0.296092
vt 0.623667 0.266141
vt 0.664527 0.266141
vt 0.702146 0.271400
vt 0.788521 0.266351
vt 0.783598 0.314921
vt 0.752400 0.271400
vt 0.062747 0.266141
vt 0.025127 0.271400
vt 0.101781 0.296092
vt 0.101508 0.314921
vt 0.244565 0.266141
vt 0.272728 0.314921
vt 0.206946 0.271400
vt 0.300891 0.266141
vt 0.333304 0.270672
vt 0.327273 0.314921
vt 0.699110 0.206241
vt 0.727273 0.157461
vt 0.755436 0.206241
vt 0.883964 0.271400
vt 0.934218 0.271400
vt 0.880928 0.206241
vt 0.909091 0.157461
vt 0.937254 0.206241
vt 0.168508 0.271400
vt 0.169256 0.293162
vt 0.170948 0.176290
vt 0.181819 0.157461
vt 0.209982 0.206241
vt 0.169123 0.206241
vt 0.545455 0.157461
vt 0.454546 0.157461
vt 0.605888 0.104675
vt 0.636364 0.157461
vt 0.623486 0.157461
vt 0.685065 0.084353
vt 0.666840 0.104675
vt 0.754546 0.110223
vt 0.781818 0.157461
vt 0.881818 0.110223
vt 0.854546 0.157461
vt 0.969524 0.104675
vt 1.000000 0.157461
vt 0.951299 0.084353
vt 0.393056 0.106505
vt 0.409092 0.078731
vt 0.398221 0.157461
vt 0.393056 0.078731
vt 0.121386 0.104675
vt 0.103788 0.157461
vt 0.090910 0.157461
vt 0.175100 0.145824
vt 0.272728 0.157461
vt 0.623801 0.179220
vt 0.974873 0.200982
vt 0.247601 0.200982
vt 0.429419 0.200982
vt 0.393298 0.206031
vt 0.517292 0.206241
vt 0.479673 0.200982
vt 0.661491 0.200982
vt 0.848515 0.201710
vt 0.171220 0.157461
vt 0.297855 0.200982
vt 0.103606 0.266141
vt 0.623053 0.200982
vt 0.097628 0.326558
vt 0.080305 0.393651
vt 0.847601 0.421426
vt 0.552174 0.145824
vt 0.556054 0.157461
vt 0.558018 0.293162
vt 0.558333 0.314921
vt 0.103473 0.179220
vt 0.104221 0.200982
vt 0.065783 0.200982
vt 0.556326 0.176290
vt 0.558151 0.206241
vt 0.496754 0.388029
vt 0.490605 0.393651
vt 0.445455 0.393651
vt 0.393056 0.050956
vt 0.514979 0.367707
vt 0.461054 0.420670
vt 0.230520 0.388029
vt 0.212295 0.367707
vt 0.575931 0.367707
vt 0.558766 0.271400
vt 0.334218 0.106505
vt 0.318182 0.078731
vt 0.334218 0.078731
vt 0.772727 0.393651
vt 0.788763 0.365877
vt 0.788763 0.393651
vt 0.665783 0.421426
vt 0.655252 0.425732
vt 0.788763 0.421426
vt 0.787849 0.201710
vt 0.393970 0.270672
vt 0.236669 0.393651
vt 0.281819 0.393651
vt 0.266220 0.420670
vt 0.300001 0.362159
vt 0.072022 0.425732
vt 0.061490 0.421426
vt 0.847843 0.266351
vt 0.334218 0.050956
vt 0.329053 0.157461
vt 0.333976 0.206031
vn 0.1024 -0.9435 0.3151
vn -0.2680 -0.9435 0.1947
vn -0.2680 -0.9435 -0.1947
vn 0.1024 -0.9435 -0.3151
vn -0.4713 0.6617 0.5831
vn 0.0385 0.6617 -0.7488
vn 0.7240 0.6617 -0.1947
vn -0.1876 0.7947 -0.5773
vn -0.4713 0.6617 -0.5831
vn -0.6071 0.7947 0.0000
vn -0.7002 0.6617 0.2680
vn 0.0385 0.6617 0.7488
vn 0.7947 0.1876 -0.5773
vn 0.5746 0.3304 -0.7488
vn -0.0247 0.3304 -0.9435
vn -0.3035 0.1876 -0.9342
vn -0.5346 0.3304 -0.7779
vn -0.9050 0.3304 -0.2680
vn -0.5346 0.3304 0.7779
vn -0.0247 0.3304 0.9435
vn 0.5746 0.3304 0.7488
vn 0.7947 0.1876 0.5773
vn 0.8897 0.3304 0.3151
vn -0.8026 0.1256 -0.5831
vn -0.7947 -0.1876 -0.5773
vn -0.8026 0.1256 0.5831
vn -0.7947 -0.1876 0.5773
vn 0.3066 0.1256 0.9435
vn 0.3035 -0.1876 0.9342
vn 0.4713 -0.6617 -0.5831
vn -0.0385 -0.6617 -0.7488
vn -0.4089 -0.6617 -0.6284
vn -0.7240 -0.6617 -0.1947
vn -0.7240 -0.6617 0.1947
vn -0.4089 -0.6617 0.6284
vn 0.7002 -0.6617 -0.2680
vn 0.6071 -0.7947 0.0000
vn -0.0385 -0.6617 0.7488
vn 0.1876 -0.7947 0.5773
vn 0.4713 -0.6617 0.5831
vn 0.0247 -0.3304 -0.9435
vn -0.5746 -0.3304 0.7488
vn 0.5346 -0.3304 0.7779
vn 0.9050 -0.3304 -0.2680
vn 0.5346 -0.3304 -0.7779
vn 0.8026 -0.1256 -0.5831
vn -0.5746 -0.3304 -0.7488
vn -0.8897 -0.3304 0.3151
vn 0.0247 -0.3304 0.9435
vn 0.8026 -0.1256 0.5831
vn -0.3035 0.1876 0.9342
vn -0.3066 -0.1256 -0.9435
vn -0.4911 -0.7947 0.3568
vn -0.1876 0.7947 0.5773
vn -0.3313 0.9435 0.0000
vn -0.3066 -0.1256 0.9435
vn 0.1876 -0.7947 -0.5773
vn 0.3035 -0.1876 -0.9342
vn 0.4911 0.7947 -0.3568
vn 0.3313 -0.9435 0.0000
vn 0.4089 0.6617 -0.6284
vn 0.2680 0.9435 -0.1947
vn 0.4089 0.6617 0.6284
vn 0.3066 0.1256 -0.9435
vn -0.4911 -0.7947 -0.3568
vn -0.1024 0.9435 -0.3151
vn -0.8897 -0.3304 -0.3151
vn 0.8897 0.3304 -0.3151
vn -0.7002 0.6617 -0.2680
vn 0.2680 0.9435 0.1947
vn 0.4911 0.7947 0.3568
vn -0.1024 0.9435 0.3151
vn -0.9050 0.3304 0.2680
vn 0.7240 0.6617 0.1947
vn 0.7002 -0.6617 0.2680
vn 0.9050 -0.3304 0.2680
usemtl Material
s off
f 113/1/1 9/2/1 81/3/1 131/4/1
f 130/5/2 59/6/2 128/7/2
f 107/8/3 98/9/3 58/10/3
f 109/11/4 78/12/4 11/13/4 92/14/4
f 6/15/5 16/16/5 19/17/5
f 47/18/6 17/19/6 53/20/6
f 90/21/7 18/22/7 95/23/7
f 53/20/8 17/19/8 20/24/8 52/25/8
f 17/19/9 7/26/9 20/24/9
f 117/27/10 118/28/10 19/29/10
f 115/30/11 6/31/11 19/29/11 118/28/11
f 88/32/12 5/33/12 69/34/12
f 39/35/13 40/36/13 18/22/13
f 38/37/14 8/38/14 18/22/14 40/36/14
f 56/39/15 17/19/15 47/18/15
f 66/40/16 41/41/16 17/19/16 56/39/16
f 37/42/17 7/26/17 17/19/17 41/41/17
f 104/43/18 89/44/18 7/26/18 35/45/18
f 42/46/19 16/16/19 6/15/19 34/47/19
f 64/48/20 51/49/20 16/16/20
f 43/50/21 15/51/21 5/33/21 33/52/21
f 43/50/22 44/53/22 15/51/22
f 127/54/23 114/55/23 15/51/23 44/53/23
f 37/42/24 35/45/24 7/26/24
f 28/56/25 13/57/25 29/58/25
f 36/59/26 34/60/26 6/31/26
f 30/61/27 12/62/27 31/63/27
f 86/64/28 33/52/28 5/33/28 84/65/28
f 77/66/29 10/67/29 32/68/29 82/69/29
f 11/13/30 14/70/30 4/71/30
f 49/72/31 3/73/31 50/74/31
f 57/75/32 13/57/32 3/73/32 49/76/32
f 99/77/33 93/78/33 13/57/33
f 121/79/34 12/62/34 112/80/34
f 48/81/35 2/82/35 12/62/35 60/83/35
f 100/84/36 11/85/36 4/71/36 91/86/36
f 100/84/37 101/87/37 11/85/37
f 48/88/38 45/89/38 2/90/38
f 81/3/39 9/2/39 10/67/39 80/91/39
f 9/2/40 1/92/40 10/67/40
f 50/74/41 3/73/41 61/93/41
f 12/62/42 2/82/42 26/94/42 31/63/42
f 10/67/43 1/92/43 25/95/43 32/68/43
f 91/86/44 4/71/44 24/96/44 103/97/44
f 4/71/45 14/70/45 27/98/45 23/99/45
f 4/71/46 23/99/46 24/96/46
f 3/73/47 13/57/47 28/56/47 22/100/47
f 112/80/48 12/62/48 30/61/48 124/101/48
f 87/102/49 10/67/49 77/66/49
f 1/92/50 21/103/50 25/95/50
f 42/46/51 65/104/51 64/48/51 16/16/51
f 3/73/52 22/100/52 62/105/52 61/93/52
f 128/7/53 59/6/53 60/83/53 12/62/53 121/79/53
f 19/17/54 16/16/54 55/106/54 54/107/54
f 117/27/55 19/29/55 116/108/55
f 16/16/12 51/49/12 55/106/12
f 84/65/20 5/33/20 88/32/20
f 79/109/31 71/110/31 14/70/31
f 67/111/15 68/112/15 8/38/15
f 2/90/56 46/113/56 63/114/56 26/115/56
f 80/91/38 10/67/38 87/102/38
f 2/90/49 45/89/49 46/113/49
f 11/13/57 78/12/57 79/109/57 14/70/57
f 27/98/58 14/70/58 76/116/58 83/117/58
f 95/23/59 18/22/59 73/118/59 72/119/59 108/120/59
f 14/70/41 71/110/41 76/116/41
f 101/87/60 92/121/60 11/85/60
f 18/22/61 8/38/61 70/122/61 73/118/61
f 108/120/62 72/119/62 110/123/62
f 5/33/63 15/51/63 75/124/63 69/125/63
f 8/38/6 68/112/6 70/126/6
f 38/37/64 85/127/64 67/111/64 8/38/64
f 122/128/37 9/129/37 123/130/37
f 58/10/65 98/9/65 99/77/65 13/57/65 57/75/65
f 20/131/10 97/132/10 96/133/10
f 52/25/66 20/24/66 94/134/66 106/135/66
f 20/131/55 96/133/55 94/136/55
f 13/57/67 93/78/67 102/137/67 29/58/67
f 39/35/68 18/22/68 90/21/68 105/138/68
f 7/26/69 89/44/69 97/132/69 20/131/69
f 74/139/70 119/140/70 132/141/70
f 75/124/71 15/51/71 120/142/71 119/140/71 74/139/71
f 19/17/72 54/107/72 129/143/72 116/144/72
f 36/59/73 6/31/73 115/30/73 126/145/73
f 15/51/74 114/55/74 120/142/74
f 9/129/60 113/146/60 123/130/60
f 1/92/75 9/129/75 122/128/75 111/147/75
f 1/92/76 111/147/76 125/148/76 21/103/76
