# Blender 3.2.2
# www.blender.org
mtllib Wing R.mtl
o Wing R
v 2.981955 -2.198285 -1.913074
v 0.836241 -3.113683 -2.355894
v 1.389022 0.491651 0.250890
v 1.389022 0.491651 0.250890
v 0.836241 -3.113683 -2.355894
v -0.754215 -0.427437 -0.195123
v 4.996654 3.930431 -4.755722
v 1.253776 -0.915138 -0.256094
v 2.745507 6.208807 -4.174792
v 2.745507 6.208807 -4.174792
v 1.253776 -0.915138 -0.256094
v -1.003604 1.363687 0.320266
vn -0.0875 0.5925 -0.8008
vn -0.0874 0.5924 -0.8009
vn -0.5283 -0.3216 -0.7858
vn -0.5264 -0.3225 -0.7867
vt 0.083897 0.078947
vt 0.321606 0.078947
vt 0.043302 0.921053
vt 0.043302 0.921053
vt 0.321606 0.078947
vt 0.281010 0.921053
vt 0.070365 0.078947
vt 0.070365 0.921053
vt 0.301308 0.078947
vt 0.301308 0.078947
vt 0.070365 0.921053
vt 0.301308 0.921053
s 1
usemtl Material.101_Navi_grp.png
f 1/1/1 2/2/1 3/3/1
f 4/4/2 5/5/2 6/6/2
usemtl Material.097_Navi_grp.png
f 7/7/3 8/8/3 9/9/3
f 10/10/4 11/11/4 12/12/4
